#!OML:ASF H:\Dans Jumps\Project 1\Capture day 1\Session 1\subject.ASF
:FULLY-SPECIFIED
:DEGREES
590
root 0.669485 17.6809 11.7642 7.82141 -2.28629 -1.41565
lowerback -4.39414 -0.142751 -0.279716
upperback 0.982692 -0.230277 1.63743
thorax 3.48501 -0.13797 1.82782
lowerneck -13.6571 -1.00179 -2.55231
upperneck 16.4474 -1.38174 2.96962
head 7.33795 -0.54665 1.24858
rclavicle 5.11871e-015 -1.35174e-014
rhumerus -26.7292 -15.5141 -79.6722
rradius 23.8042
rwrist 37.7452
rhand -16.0924 -26.6577
rfingers 7.12502
rthumb 10.111 -56.3948
lclavicle 5.11871e-015 -1.35174e-014
lhumerus -23.985 2.56965 87.9159
lradius 18.8452
lwrist 2.95243
lhand -23.8139 -3.17237
lfingers 7.12502
lthumb 2.65712 26.7908
rfemur -13.2028 -3.98946 21.1782
rtibia 21.3303
rfoot -14.9989 -1.65279
rtoes 11.5368
lfemur -12.4517 8.92803 -19.2888
ltibia 17.9122
lfoot -10.5434 6.83477
ltoes -4.0695
591
root 0.669009 17.6807 11.7638 7.81235 -2.30907 -1.41736
lowerback -4.39341 -0.144526 -0.272993
upperback 0.983023 -0.232964 1.6355
thorax 3.48499 -0.139149 1.82185
lowerneck -13.6926 -1.01575 -2.57855
upperneck 16.476 -1.40881 3.04229
head 7.35503 -0.554168 1.27398
rclavicle -5.56597e-015 -2.96189e-014
rhumerus -26.7232 -15.4886 -79.6835
rradius 23.8154
rwrist 37.706
rhand -16.0929 -26.6597
rfingers 7.12502
rthumb 10.1106 -56.3968
lclavicle -5.56597e-015 -2.96189e-014
lhumerus -23.9954 2.45505 88.0098
lradius 18.8715
lwrist 2.98165
lhand -23.8342 -3.24121
lfingers 7.12502
lthumb 2.63749 26.7222
rfemur -13.1987 -3.98456 21.1807
rtibia 21.3318
rfoot -14.998 -1.65332
rtoes 11.4732
lfemur -12.4419 8.9221 -19.2845
ltibia 17.9185
lfoot -10.5394 6.86668
ltoes -4.0738
592
root 0.668541 17.6806 11.7633 7.80553 -2.32997 -1.42014
lowerback -4.39407 -0.146989 -0.265103
upperback 0.983065 -0.236667 1.63434
thorax 3.48549 -0.140819 1.81594
lowerneck -13.7231 -1.02765 -2.5907
upperneck 16.4976 -1.4334 3.10066
head 7.36869 -0.560977 1.29261
rclavicle 9.69075e-015 7.95139e-015
rhumerus -26.7145 -15.4684 -79.6941
rradius 23.8218
rwrist 37.6756
rhand -16.0966 -26.6591
rfingers 7.12502
rthumb 10.107 -56.3964
lclavicle 9.69075e-015 7.95139e-015
lhumerus -24.0079 2.35499 88.0993
lradius 18.8948
lwrist 2.99065
lhand -23.854 -3.33201
lfingers 7.12502
lthumb 2.61837 26.6317
rfemur -13.1984 -3.98218 21.1848
rtibia 21.3351
rfoot -14.9979 -1.65322
rtoes 11.4151
lfemur -12.4349 8.91477 -19.279
ltibia 17.9245
lfoot -10.5352 6.89717
ltoes -4.07099
593
root 0.66807 17.6804 11.7629 7.79922 -2.35051 -1.41908
lowerback -4.3955 -0.149425 -0.261183
upperback 0.981719 -0.240086 1.63292
thorax 3.485 -0.142416 1.81202
lowerneck -13.7457 -1.03901 -2.59324
upperneck 16.5139 -1.45702 3.14649
head 7.37909 -0.567952 1.30563
rclavicle -8.74653e-015 2.38542e-015
rhumerus -26.7103 -15.4485 -79.7021
rradius 23.8277
rwrist 37.6461
rhand -16.1106 -26.6559
rfingers 7.12502
rthumb 10.0935 -56.3938
lclavicle -8.74653e-015 2.38542e-015
lhumerus -24.0243 2.25734 88.188
lradius 18.9101
lwrist 2.99114
lhand -23.88 -3.45642
lfingers 7.12502
lthumb 2.5933 26.5076
rfemur -13.1992 -3.98093 21.1843
rtibia 21.3404
rfoot -14.9999 -1.65261
rtoes 11.3629
lfemur -12.4276 8.90489 -19.2776
ltibia 17.9299
lfoot -10.5316 6.92741
ltoes -4.05714
594
root 0.6676 17.6802 11.7626 7.79302 -2.36905 -1.41509
lowerback -4.39849 -0.152369 -0.259958
upperback 0.980154 -0.244034 1.63142
thorax 3.48519 -0.144333 1.80948
lowerneck -13.7435 -1.05253 -2.59666
upperneck 16.5132 -1.48319 3.1903
head 7.37965 -0.576638 1.31783
rclavicle -3.13086e-015 5.56597e-015
rhumerus -26.7095 -15.4258 -79.7096
rradius 23.8369
rwrist 37.6111
rhand -16.129 -26.6522
rfingers 7.12502
rthumb 10.0757 -56.3909
lclavicle -3.13086e-015 5.56597e-015
lhumerus -24.0408 2.16188 88.2761
lradius 18.917
lwrist 2.98795
lhand -23.9021 -3.5968
lfingers 7.12502
lthumb 2.57188 26.3674
rfemur -13.2007 -3.98554 21.1809
rtibia 21.3474
rfoot -15.0045 -1.64968
rtoes 11.3141
lfemur -12.4202 8.89605 -19.2794
ltibia 17.9348
lfoot -10.5259 6.95261
ltoes -4.04342
595
root 0.66712 17.68 11.7625 7.7854 -2.38706 -1.41174
lowerback -4.40039 -0.15555 -0.257755
upperback 0.978001 -0.248366 1.63073
thorax 3.48416 -0.146421 1.80721
lowerneck -13.7358 -1.06349 -2.60767
upperneck 16.5161 -1.50537 3.23921
head 7.38035 -0.583457 1.3334
rclavicle -4.42296e-015 8.54774e-015
rhumerus -26.7147 -15.399 -79.7161
rradius 23.8495
rwrist 37.5746
rhand -16.1493 -26.6457
rfingers 7.12502
rthumb 10.0561 -56.3855
lclavicle -4.42296e-015 8.54774e-015
lhumerus -24.0537 2.06611 88.3632
lradius 18.9072
lwrist 2.98811
lhand -23.9231 -3.76604
lfingers 7.12502
lthumb 2.55165 26.1984
rfemur -13.1999 -3.99038 21.178
rtibia 21.3548
rfoot -15.0107 -1.64861
rtoes 11.2667
lfemur -12.411 8.88845 -19.2803
ltibia 17.9399
lfoot -10.5206 6.97656
ltoes -4.03446
596
root 0.666651 17.6797 11.7623 7.77695 -2.40246 -1.40829
lowerback -4.40009 -0.159798 -0.255078
upperback 0.974693 -0.254146 1.63074
thorax 3.48076 -0.14921 1.80527
lowerneck -13.7041 -1.06966 -2.60863
upperneck 16.5048 -1.52097 3.27565
head 7.37189 -0.587923 1.34387
rclavicle -3.52843e-015 3.37934e-015
rhumerus -26.7243 -15.3664 -79.7224
rradius 23.8638
rwrist 37.5341
rhand -16.17 -26.6422
rfingers 7.12502
rthumb 10.0361 -56.3829
lclavicle -3.52843e-015 3.37934e-015
lhumerus -24.067 1.97432 88.4478
lradius 18.8831
lwrist 2.98026
lhand -23.9573 -3.99722
lfingers 7.12502
lthumb 2.51857 25.9677
rfemur -13.1971 -3.99754 21.1751
rtibia 21.3611
rfoot -15.0161 -1.64946
rtoes 11.2111
lfemur -12.4021 8.88157 -19.2814
ltibia 17.9465
lfoot -10.5163 6.99699
ltoes -4.02699
597
root 0.666098 17.6794 11.7622 7.7668 -2.41625 -1.41002
lowerback -4.39809 -0.163559 -0.246621
upperback 0.97226 -0.25963 1.63156
thorax 3.47726 -0.151745 1.80096
lowerneck -13.6565 -1.07066 -2.58564
upperneck 16.4779 -1.52994 3.28753
head 7.35494 -0.590196 1.34297
rclavicle 7.40473e-015 6.16232e-015
rhumerus -26.7355 -15.3347 -79.7298
rradius 23.8792
rwrist 37.4918
rhand -16.1883 -26.6419
rfingers 7.12502
rthumb 10.0185 -56.3835
lclavicle 7.40473e-015 6.16232e-015
lhumerus -24.0752 1.87477 88.531
lradius 18.8451
lwrist 2.97748
lhand -23.99 -4.25064
lfingers 7.12502
lthumb 2.48704 25.7146
rfemur -13.1907 -3.99906 21.1781
rtibia 21.3656
rfoot -15.0195 -1.65733
rtoes 11.1539
lfemur -12.3924 8.87726 -19.2761
ltibia 17.9547
lfoot -10.5146 7.01434
ltoes -4.0247
598
root 0.665513 17.6792 11.7621 7.75636 -2.42759 -1.41485
lowerback -4.39508 -0.168211 -0.234965
upperback 0.970949 -0.266537 1.63362
thorax 3.47439 -0.154944 1.79601
lowerneck -13.5917 -1.06711 -2.54326
upperneck 16.4327 -1.53247 3.2769
head 7.32846 -0.590478 1.33211
rclavicle -4.72114e-015 -2.50469e-014
rhumerus -26.7443 -15.3088 -79.7364
rradius 23.8914
rwrist 37.4613
rhand -16.1812 -26.6476
rfingers 7.12502
rthumb 10.0254 -56.3889
lclavicle -4.72114e-015 -2.50469e-014
lhumerus -24.0809 1.77073 88.6139
lradius 18.8009
lwrist 2.98072
lhand -24.0254 -4.51871
lfingers 7.12502
lthumb 2.45287 25.4469
rfemur -13.1829 -3.99696 21.1847
rtibia 21.3684
rfoot -15.0213 -1.67219
rtoes 11.0873
lfemur -12.3837 8.8749 -19.2673
ltibia 17.9641
lfoot -10.5143 7.02854
ltoes -4.02887
599
root 0.664903 17.6789 11.762 7.7439 -2.43924 -1.41785
lowerback -4.38912 -0.172326 -0.225031
upperback 0.970498 -0.27259 1.63487
thorax 3.47072 -0.157747 1.79127
lowerneck -13.5215 -1.06059 -2.48144
upperneck 16.3746 -1.53054 3.24353
head 7.29641 -0.589615 1.31101
rclavicle 1.83876e-015 4.77083e-015
rhumerus -26.751 -15.2895 -79.7429
rradius 23.8997
rwrist 37.4383
rhand -16.1661 -26.6585
rfingers 7.12502
rthumb 10.0399 -56.399
lclavicle 1.83876e-015 4.77083e-015
lhumerus -24.0874 1.6568 88.6973
lradius 18.7554
lwrist 2.99158
lhand -24.0712 -4.79119
lfingers 7.12502
lthumb 2.40861 25.175
rfemur -13.1723 -3.99165 21.189
rtibia 21.37
rfoot -15.0218 -1.69066
rtoes 11.0122
lfemur -12.3729 8.87154 -19.2601
ltibia 17.9739
lfoot -10.5151 7.04518
ltoes -4.03843
600
root 0.664233 17.6787 11.7619 7.73062 -2.44994 -1.42232
lowerback -4.38299 -0.176131 -0.214258
upperback 0.972555 -0.278322 1.6365
thorax 3.46954 -0.1604 1.78649
lowerneck -13.4611 -1.05301 -2.41886
upperneck 16.3168 -1.52678 3.20866
head 7.26612 -0.587875 1.28949
rclavicle 7.05686e-015 1.35174e-014
rhumerus -26.7496 -15.288 -79.7483
rradius 23.8993
rwrist 37.4318
rhand -16.1518 -26.6692
rfingers 7.12502
rthumb 10.0537 -56.409
lclavicle 7.05686e-015 1.35174e-014
lhumerus -24.0921 1.53952 88.7809
lradius 18.7101
lwrist 2.99925
lhand -24.1357 -5.07286
lfingers 7.12502
lthumb 2.34632 24.894
rfemur -13.161 -3.98355 21.1951
rtibia 21.3719
rfoot -15.0218 -1.71333
rtoes 10.9305
lfemur -12.3608 8.86863 -19.251
ltibia 17.9824
lfoot -10.5158 7.06153
ltoes -4.05255
601
root 0.663511 17.6785 11.7617 7.71727 -2.45922 -1.42362
lowerback -4.37641 -0.180638 -0.208426
upperback 0.975926 -0.284732 1.6384
thorax 3.4695 -0.163508 1.78471
lowerneck -13.4219 -1.04452 -2.36835
upperneck 16.2696 -1.52048 3.1818
head 7.24308 -0.584718 1.27287
rclavicle -3.47873e-015 9.93923e-016
rhumerus -26.745 -15.2951 -79.7516
rradius 23.8943
rwrist 37.4364
rhand -16.1442 -26.6768
rfingers 7.12502
rthumb 10.0611 -56.4163
lclavicle -3.47873e-015 9.93923e-016
lhumerus -24.0967 1.42294 88.8649
lradius 18.6693
lwrist 3.00448
lhand -24.2113 -5.3254
lfingers 7.12502
lthumb 2.27325 24.6422
rfemur -13.1499 -3.97511 21.198
rtibia 21.3749
rfoot -15.0222 -1.74102
rtoes 10.8351
lfemur -12.348 8.86547 -19.2451
ltibia 17.9892
lfoot -10.517 7.0755
ltoes -4.0601
